<svg width="512" height="512" viewBox="0 0 512 512" fill="none" xmlns="http://www.w3.org/2000/svg">
<rect width="512" height="512" rx="256" fill="url(#paint0_linear_46_33)"/>
<path d="M126.315 338.484C102.299 338.484 83.9675 331.805 71.3201 318.447C58.8147 305.089 52.562 286.118 52.562 261.534C52.562 249.313 54.4805 238.442 58.3173 228.92C62.1542 219.257 67.4121 211.157 74.0911 204.62C80.7701 197.941 88.7281 192.897 97.9649 189.486C107.202 186.075 117.22 184.37 128.02 184.37C134.273 184.37 139.957 184.868 145.073 185.862C150.189 186.715 154.665 187.781 158.502 189.06C162.339 190.196 165.536 191.404 168.094 192.683C170.652 193.962 172.5 194.957 173.636 195.668L164.044 222.526C159.497 220.11 154.168 218.049 148.057 216.344C142.089 214.639 135.268 213.786 127.594 213.786C122.478 213.786 117.433 214.639 112.46 216.344C107.628 218.049 103.294 220.82 99.4571 224.657C95.7623 228.352 92.7781 233.184 90.5044 239.152C88.2307 245.121 87.0938 252.368 87.0938 260.894C87.0938 267.715 87.8044 274.11 89.2254 280.079C90.7886 285.905 93.2044 290.95 96.4728 295.213C99.8834 299.476 104.289 302.887 109.689 305.445C115.089 307.86 121.626 309.068 129.299 309.068C134.131 309.068 138.465 308.784 142.302 308.216C146.139 307.647 149.549 307.008 152.534 306.297C155.518 305.445 158.147 304.521 160.421 303.526C162.694 302.531 164.755 301.608 166.602 300.755L175.768 327.4C171.079 330.242 164.471 332.8 155.944 335.074C147.418 337.347 137.542 338.484 126.315 338.484ZM259.123 338.484C235.107 338.484 216.776 331.805 204.128 318.447C191.623 305.089 185.37 286.118 185.37 261.534C185.37 249.313 187.289 238.442 191.126 228.92C194.962 219.257 200.22 211.157 206.899 204.62C213.578 197.941 221.536 192.897 230.773 189.486C240.01 186.075 250.028 184.37 260.829 184.37C267.081 184.37 272.765 184.868 277.881 185.862C282.997 186.715 287.473 187.781 291.31 189.06C295.147 190.196 298.345 191.404 300.902 192.683C303.46 193.962 305.308 194.957 306.445 195.668L296.852 222.526C292.305 220.11 286.976 218.049 280.866 216.344C274.897 214.639 268.076 213.786 260.402 213.786C255.286 213.786 250.242 214.639 245.268 216.344C240.436 218.049 236.102 220.82 232.265 224.657C228.57 228.352 225.586 233.184 223.313 239.152C221.039 245.121 219.902 252.368 219.902 260.894C219.902 267.715 220.613 274.11 222.034 280.079C223.597 285.905 226.013 290.95 229.281 295.213C232.692 299.476 237.097 302.887 242.497 305.445C247.897 307.86 254.434 309.068 262.108 309.068C266.939 309.068 271.273 308.784 275.11 308.216C278.947 307.647 282.358 307.008 285.342 306.297C288.326 305.445 290.955 304.521 293.229 303.526C295.502 302.531 297.563 301.608 299.41 300.755L308.576 327.4C303.887 330.242 297.279 332.8 288.752 335.074C280.226 337.347 270.35 338.484 259.123 338.484ZM363.238 308.429C364.801 308.571 366.578 308.713 368.567 308.855C370.699 308.855 373.186 308.855 376.028 308.855C392.654 308.855 404.946 304.663 412.904 296.279C421.004 287.894 425.054 276.313 425.054 261.534C425.054 246.044 421.218 234.32 413.544 226.362C405.87 218.405 393.72 214.426 377.094 214.426C374.82 214.426 372.475 214.497 370.059 214.639C367.644 214.639 365.37 214.781 363.238 215.065V308.429ZM459.373 261.534C459.373 274.323 457.384 285.479 453.405 295C449.426 304.521 443.741 312.408 436.352 318.66C429.104 324.913 420.223 329.603 409.707 332.729C399.191 335.855 387.396 337.418 374.322 337.418C368.354 337.418 361.391 337.134 353.433 336.566C345.475 336.139 337.659 335.145 329.985 333.582V189.699C337.659 188.278 345.617 187.354 353.859 186.928C362.243 186.36 369.42 186.075 375.388 186.075C388.036 186.075 399.475 187.496 409.707 190.339C420.081 193.181 428.962 197.657 436.352 203.768C443.741 209.878 449.426 217.694 453.405 227.215C457.384 236.736 459.373 248.176 459.373 261.534Z" fill="#1E1E1E"/>
<defs>
<linearGradient id="paint0_linear_46_33" x1="256" y1="0" x2="256" y2="512" gradientUnits="userSpaceOnUse">
<stop stop-color="#CCA43B"/>
<stop offset="1" stop-color="#66521E"/>
</linearGradient>
</defs>
</svg>
